<svg xmlns="http://www.w3.org/2000/svg" data-v-1084b650="" width="300" height="300" style=""><rect id="backgroundrect" width="100%" height="100%" x="0" y="0" fill="none" stroke="none" style="" class=""/><!----> <!---->  <linearGradient data-v-1084b650="" gradientTransform="rotate(25)" id="aa050ffa-1c86-3256-0495-50e1588afca5" x1="0%" y1="0%" x2="100%" y2="0%"><stop data-v-1084b650="" offset="0%" style="stop-color: rgb(23, 61, 96); stop-opacity: 1;"/> <stop data-v-1084b650="" offset="100%" style="stop-color: rgb(52, 57, 62); stop-opacity: 1;"/></linearGradient>  <linearGradient data-v-1084b650="" gradientTransform="rotate(25)" id="47c1c7fe-b4e2-2723-4976-a2d922bbe023" x1="0%" y1="0%" x2="100%" y2="0%"><stop data-v-1084b650="" offset="0%" style="stop-color: rgb(18, 30, 39); stop-opacity: 1;"/> <stop data-v-1084b650="" offset="100%" style="stop-color: rgb(43, 111, 167); stop-opacity: 1;"/></linearGradient> <g class="currentLayer" style=""><title>Layer 1</title><rect data-v-1084b650="" fill="#d1d1d6" x="0" y="114.9253650124021" width="300" height="70.89553792606301" class="logo-background-square" id="svg_1"/><g data-v-1084b650="" id="4ad57c56-e451-82d0-0b89-8bcedbb0b053" fill="url(#aa050ffa-1c86-3256-0495-50e1588afca5)" class=""><path d="M141.03530340337755,169.85655238628385 L141.03530340337755,169.85655238628385 L141.03530340337755,150.23355238628386 C141.03530340337755,149.70655238628387 140.41530340337755,149.48955238628386 140.10530340337755,149.98555238628387 L131.30130340337755,162.57155238628386 L122.49730340337754,149.92355238628386 C122.18730340337754,149.55155238628387 121.53630340337754,149.70655238628387 121.53630340337754,150.23355238628386 L121.53630340337754,169.85655238628385 C121.53630340337754,170.10455238628387 121.75330340337754,170.32155238628388 122.00130340337755,170.32155238628388 C122.37330340337755,170.32155238628388 122.59030340337755,170.10455238628387 122.59030340337755,169.85655238628385 L122.59030340337755,151.84555238628386 L130.83630340337754,163.78055238628386 C130.86730340337755,163.81155238628386 130.89830340337755,163.87355238628388 130.96030340337754,163.90455238628385 C131.27030340337754,164.02855238628388 131.54930340337754,163.99755238628387 131.70430340337754,163.78055238628386 L140.01230340337753,151.84555238628386 L140.01230340337753,169.85655238628385 C140.01230340337753,170.10455238628387 140.22930340337754,170.32155238628388 140.53930340337755,170.32155238628388 C140.81830340337754,170.32155238628388 141.03530340337755,170.10455238628387 141.03530340337755,169.85655238628385 zM116.29730340337754,169.85655238628385 L116.29730340337754,169.85655238628385 L116.29730340337754,138.36055238628387 C116.29730340337754,138.08155238628387 116.01830340337754,137.86455238628386 115.70830340337754,137.86455238628386 C115.46030340337754,137.86455238628386 115.24330340337754,138.08155238628387 115.24330340337754,138.36055238628387 L115.24330340337754,169.85655238628385 C115.24330340337754,170.10455238628387 115.46030340337754,170.32155238628388 115.70830340337754,170.32155238628388 C116.01830340337754,170.32155238628388 116.29730340337754,170.10455238628387 116.29730340337754,169.85655238628385 zM147.32830340337753,169.85655238628385 L147.32830340337753,169.85655238628385 L147.32830340337753,138.36055238628387 C147.32830340337753,138.08155238628387 147.11130340337755,137.86455238628386 146.80130340337755,137.86455238628386 C146.52230340337755,137.86455238628386 146.30530340337754,138.08155238628387 146.30530340337754,138.36055238628387 L146.30530340337754,169.85655238628385 C146.30530340337754,170.10455238628387 146.52230340337755,170.32155238628388 146.80130340337755,170.32155238628388 C147.11130340337755,170.32155238628388 147.32830340337753,170.10455238628387 147.32830340337753,169.85655238628385 zM140.72530340337755,138.08155238628387 L140.72530340337755,138.08155238628387 L131.30130340337755,151.59755238628387 L121.84630340337755,138.08155238628387 C121.66030340337754,137.83355238628386 121.35030340337754,137.77155238628387 121.13330340337754,137.95755238628388 C120.91630340337754,138.08155238628387 120.85430340337754,138.42255238628388 121.00930340337754,138.63955238628387 L130.83630340337754,152.74455238628386 C130.86730340337755,152.80655238628387 130.89830340337755,152.83755238628387 130.96030340337754,152.89955238628386 C131.27030340337754,153.05455238628386 131.54930340337754,152.96155238628387 131.70430340337754,152.74455238628386 L141.53130340337754,138.63955238628387 C141.68630340337754,138.42255238628388 141.62430340337755,138.08155238628387 141.40730340337754,137.95755238628388 C141.19030340337753,137.77155238628387 140.84930340337755,137.83355238628386 140.72530340337755,138.08155238628387 zM160.41030340337755,158.54155238628385 L160.41030340337755,158.54155238628385 C160.41030340337755,161.82755238628386 162.73530340337754,164.18355238628385 165.99030340337754,164.18355238628385 C169.24530340337753,164.18355238628385 171.57030340337752,161.82755238628386 171.57030340337752,158.54155238628385 L171.57030340337752,138.85655238628388 C171.57030340337752,138.60855238628386 171.35330340337754,138.39155238628388 171.04330340337754,138.39155238628388 C170.79530340337755,138.39155238628388 170.57830340337753,138.60855238628386 170.57830340337753,138.85655238628388 L170.57830340337753,158.54155238628385 C170.57830340337753,161.26955238628386 168.71830340337755,163.22255238628387 165.99030340337754,163.22255238628387 C163.29330340337754,163.22255238628387 161.37130340337754,161.26955238628386 161.37130340337754,158.54155238628385 L161.37130340337754,138.85655238628388 C161.37130340337754,138.60855238628386 161.15430340337753,138.39155238628388 160.90630340337754,138.39155238628388 C160.62730340337754,138.39155238628388 160.41030340337755,138.60855238628386 160.41030340337755,138.85655238628388 zM176.84030340337753,138.85655238628388 L176.84030340337753,138.85655238628388 L176.84030340337753,158.88255238628386 C176.84030340337753,165.39255238628385 172.00430340337755,169.54655238628385 165.99030340337754,169.54655238628385 C159.69730340337753,169.54655238628385 155.14030340337754,165.20655238628387 155.14030340337754,158.88255238628386 L155.14030340337754,138.85655238628388 C155.14030340337754,138.60855238628386 154.92330340337753,138.39155238628388 154.64430340337753,138.39155238628388 C154.33430340337753,138.39155238628388 154.11730340337755,138.60855238628386 154.11730340337755,138.85655238628388 L154.11730340337755,158.88255238628386 C154.11730340337755,165.73355238628386 159.17030340337755,170.53855238628387 165.99030340337754,170.53855238628387 C172.62430340337752,170.53855238628387 177.83230340337752,165.95055238628387 177.83230340337752,158.88255238628386 L177.83230340337752,138.85655238628388 C177.83230340337752,138.60855238628386 177.61530340337754,138.39155238628388 177.33630340337754,138.39155238628388 C177.05730340337755,138.39155238628388 176.84030340337753,138.60855238628386 176.84030340337753,138.85655238628388 zM164.09930340337752,134.26855238628386 C163.94430340337755,134.48555238628387 163.94430340337755,134.79555238628387 164.09930340337752,135.01255238628386 C164.31630340337753,135.22955238628387 164.68830340337755,135.22955238628387 164.84330340337755,134.91955238628387 L169.24530340337753,130.33155238628387 C169.46230340337752,130.14555238628387 169.46230340337752,129.83555238628387 169.15230340337754,129.58755238628387 C168.96630340337754,129.40155238628387 168.71830340337755,129.40155238628387 168.50130340337753,129.68055238628386 zM183.50530340337752,168.24455238628386 L183.50530340337752,168.24455238628386 C185.24130340337751,169.11255238628388 186.88430340337754,169.67055238628387 188.46530340337753,170.04255238628386 C196.37030340337753,171.90255238628387 203.34530340337753,168.52355238628388 203.34530340337753,160.64955238628386 C203.34530340337753,152.80655238628387 193.82830340337753,151.19455238628387 191.87530340337753,149.70655238628387 C191.28630340337753,149.24155238628387 190.94530340337752,148.55955238628385 190.94530340337752,147.90855238628387 C190.88330340337754,146.42055238628387 192.06130340337754,145.64555238628387 193.36330340337753,145.45955238628386 C195.40930340337752,145.24255238628388 198.0443034033775,146.07955238628386 199.56330340337752,146.66855238628386 C200.18330340337752,146.94755238628386 200.55530340337754,146.01755238628385 199.96630340337754,145.76955238628386 C197.45530340337754,144.71555238628386 195.50230340337754,144.34355238628387 193.39430340337753,144.46755238628387 C191.41030340337755,144.56055238628386 189.86030340337754,146.01755238628385 189.92230340337755,148.03255238628387 C190.20130340337755,151.96955238628388 195.56430340337755,151.16355238628387 199.8423034033775,155.13155238628386 C203.53130340337754,158.54155238628385 202.88030340337752,163.96655238628387 199.90430340337753,166.94255238628386 C196.06030340337753,170.81755238628386 189.02330340337755,169.98055238628388 184.0323034033775,167.37655238628386 C183.41230340337754,167.06655238628386 182.94730340337753,167.93455238628388 183.50530340337752,168.24455238628386 zM200.74130340337751,139.50755238628386 L200.74130340337751,139.50755238628386 C198.69530340337752,138.82555238628387 197.1453034033775,138.48455238628387 195.93630340337754,138.29855238628386 C188.93030340337754,137.33755238628387 183.69130340337753,141.39855238628388 183.69130340337753,148.12555238628386 C183.69130340337753,156.18555238628386 193.17730340337755,157.30155238628387 195.22330340337754,159.00655238628386 C196.21530340337753,159.90555238628386 196.40130340337754,161.48655238628388 195.34730340337754,162.44755238628386 C193.17730340337755,164.43155238628387 187.59730340337754,162.81955238628387 184.86930340337753,160.92855238628385 C184.34230340337754,160.55655238628387 183.72230340337754,161.36255238628388 184.28030340337756,161.73455238628387 C187.07030340337752,163.78055238628386 190.57330340337754,164.46255238628387 193.33230340337752,164.30755238628387 C195.34730340337754,164.18355238628385 197.17630340337752,162.72655238628386 197.05230340337755,160.71155238628387 C196.80430340337753,156.71255238628387 191.50330340337752,157.45655238628387 187.25630340337756,153.76755238628385 C183.50530340337752,150.41955238628387 184.21830340337755,144.90155238628387 186.97730340337756,141.89455238628386 C190.41830340337754,138.17455238628386 195.75030340337753,138.82555238628387 200.40030340337754,140.43755238628387 C200.98930340337753,140.68555238628386 201.36130340337752,139.72455238628388 200.74130340337751,139.50755238628386 zM215.74530340337753,169.85655238628385 L215.74530340337753,169.85655238628385 L215.74530340337753,138.82555238628387 C215.74530340337753,138.57755238628386 215.52830340337755,138.36055238628387 215.28030340337753,138.36055238628387 C214.97030340337753,138.36055238628387 214.75330340337752,138.57755238628386 214.75330340337752,138.82555238628387 L214.75330340337752,169.85655238628385 C214.75330340337752,170.10455238628387 214.97030340337753,170.32155238628388 215.28030340337753,170.32155238628388 C215.52830340337755,170.32155238628388 215.74530340337753,170.10455238628387 215.74530340337753,169.85655238628385 zM209.54530340337755,169.85655238628385 L209.54530340337755,169.85655238628385 L209.54530340337755,138.82555238628387 C209.54530340337755,138.57755238628386 209.32830340337753,138.36055238628387 209.08030340337754,138.36055238628387 C208.7703034033775,138.36055238628387 208.55330340337753,138.57755238628386 208.55330340337753,138.82555238628387 L208.55330340337753,169.85655238628385 C208.55330340337753,170.10455238628387 208.7703034033775,170.32155238628388 209.08030340337754,170.32155238628388 C209.32830340337753,170.32155238628388 209.54530340337755,170.10455238628387 209.54530340337755,169.85655238628385 zM243.73830340337753,139.29055238628388 L243.73830340337753,139.29055238628388 C241.75430340337752,138.48455238628387 239.61530340337754,138.05055238628387 237.44530340337752,138.05055238628387 C229.72630340337753,138.05055238628387 224.79730340337755,142.20455238628386 222.62730340337754,147.59855238628387 C220.92230340337755,151.72155238628386 220.92230340337755,156.58855238628388 222.62730340337754,160.74255238628388 C224.79730340337755,166.07455238628387 229.72630340337753,170.25955238628387 237.44530340337752,170.25955238628387 C239.61530340337754,170.25955238628387 241.75430340337752,169.85655238628385 243.73830340337753,169.01955238628386 C244.01730340337753,168.89555238628387 244.14130340337755,168.64755238628385 244.01730340337753,168.33755238628387 C243.92430340337754,168.12055238628386 243.58330340337753,167.99655238628387 243.36630340337754,168.08955238628386 C241.50630340337753,168.89555238628387 239.49130340337754,169.23655238628388 237.44530340337752,169.23655238628388 C230.16030340337753,169.23655238628388 225.51030340337752,165.39255238628385 223.49530340337753,160.33955238628386 C221.91430340337752,156.43355238628388 221.91430340337752,151.87655238628386 223.49530340337753,147.93955238628388 C225.51030340337752,142.97955238628387 230.16030340337753,139.04255238628386 237.44530340337752,139.04255238628386 C239.49130340337754,139.04255238628386 241.50630340337753,139.44555238628388 243.36630340337754,140.22055238628386 C243.58330340337753,140.31355238628387 243.92430340337754,140.22055238628386 244.01730340337753,139.94155238628386 C244.11030340337751,139.69355238628387 244.01730340337753,139.38355238628387 243.73830340337753,139.29055238628388 zM242.52930340337753,161.73455238628387 L242.52930340337753,161.73455238628387 C240.85530340337752,162.69555238628385 239.39830340337755,163.03655238628386 237.44530340337752,163.03655238628386 C233.29130340337753,163.03655238628386 230.68730340337754,160.77355238628388 229.50930340337752,157.82855238628386 C228.61030340337754,155.53455238628388 228.61030340337754,152.80655238628387 229.50930340337752,150.51255238628386 C230.68730340337754,147.59855238628387 233.29130340337753,145.30455238628386 237.44530340337752,145.30455238628386 C239.39830340337755,145.30455238628386 240.85530340337752,145.64555238628387 242.52930340337753,146.54455238628387 C242.80830340337755,146.66855238628386 243.05630340337754,146.60655238628388 243.18030340337754,146.38955238628387 C243.30430340337753,146.11055238628387 243.24230340337752,145.80055238628387 243.02530340337754,145.67655238628387 C241.13430340337752,144.65355238628388 239.58430340337753,144.28155238628386 237.44530340337752,144.28155238628386 C232.85730340337756,144.28155238628386 229.85030340337755,146.85455238628387 228.61030340337754,150.14055238628387 C227.61830340337752,152.68255238628387 227.61830340337752,155.62755238628387 228.61030340337754,158.16955238628387 C229.85030340337755,161.48655238628388 232.85730340337756,163.99755238628387 237.44530340337752,163.99755238628387 C239.58430340337753,163.99755238628387 241.13430340337752,163.65655238628386 243.02530340337754,162.60255238628386 C243.24230340337752,162.47855238628387 243.30430340337753,162.16855238628386 243.18030340337754,161.95155238628388 C243.05630340337754,161.70355238628386 242.80830340337755,161.61055238628387 242.52930340337753,161.73455238628387 zM257.25430340337755,160.77355238628388 L257.25430340337755,160.77355238628388 L261.81130340337756,160.77355238628388 C262.1213034033775,160.77355238628388 262.3383034033775,160.55655238628387 262.3383034033775,160.30855238628388 C262.3383034033775,160.21555238628386 262.3383034033775,160.18455238628385 262.2763034033775,160.09155238628387 L260.01330340337756,154.54255238628386 C259.88930340337754,154.23255238628386 259.64130340337755,154.10855238628386 259.33130340337755,154.23255238628386 C259.11430340337756,154.32555238628387 258.99030340337754,154.63555238628388 259.0833034033775,154.88355238628387 L261.09830340337754,159.84355238628387 L257.25430340337755,159.84355238628387 C256.97530340337755,159.84355238628387 256.7273034033775,160.06055238628386 256.7273034033775,160.30855238628388 C256.7273034033775,160.55655238628387 256.97530340337755,160.77355238628388 257.25430340337755,160.77355238628388 zM253.99930340337752,169.54655238628385 L253.99930340337752,169.54655238628385 L255.02230340337752,167.03555238628385 L264.01230340337753,167.03555238628385 L265.06630340337756,169.54655238628385 C265.1903034033775,169.85655238628385 265.4383034033775,169.94955238628387 265.7173034033775,169.85655238628385 C265.96530340337756,169.76355238628386 266.0893034033775,169.42255238628385 266.0273034033775,169.20555238628387 L264.8493034033776,166.38455238628387 C264.78730340337756,166.19855238628386 264.63230340337753,166.07455238628387 264.3533034033775,166.07455238628387 L254.74330340337752,166.07455238628387 C254.5263034033775,166.07455238628387 254.30930340337753,166.16755238628386 254.24730340337754,166.38455238628387 L253.06930340337752,169.20555238628387 C252.94530340337752,169.42255238628385 253.06930340337752,169.76355238628386 253.37930340337752,169.85655238628385 C253.65830340337754,169.94955238628387 253.90630340337754,169.85655238628385 253.99930340337752,169.54655238628385 zM247.27230340337752,169.54655238628385 L247.27230340337752,169.54655238628385 L259.54830340337753,139.47655238628386 L271.82430340337754,169.54655238628385 C271.9173034033775,169.85655238628385 272.2273034033775,169.94955238628387 272.47530340337755,169.85655238628385 C272.75430340337755,169.76355238628386 272.81630340337756,169.42255238628385 272.75430340337755,169.20555238628387 L260.01330340337756,137.98855238628386 C259.85830340337753,137.55455238628386 259.23830340337753,137.52355238628388 259.0833034033775,137.98855238628386 L246.3423034033775,169.20555238628387 C246.21830340337752,169.42255238628385 246.3423034033775,169.76355238628386 246.62130340337754,169.85655238628385 C246.86930340337753,169.94955238628387 247.17930340337753,169.85655238628385 247.27230340337752,169.54655238628385 z" stroke-width="0" id="svg_2"/></g><g data-v-1084b650="" id="5235f0ab-df86-a962-da65-3601df29213e" stroke="none" fill="url(#47c1c7fe-b4e2-2723-4976-a2d922bbe023)" transform="matrix(0.20979135911008148,0,0,0.20979135911008148,39.78802465854907,118.53129613348779) " class=""><svg xmlns="http://www.w3.org/2000/svg" xmlns:xlink="http://www.w3.org/1999/xlink" version="1.1" x="0px" y="0px" viewBox="0 0 48 48" enable-background="new 0 0 48 48" xml:space="preserve" id="svg_5"><path d="M44.2,24.5c-1.7-1.7-3.9-2.8-6.4-3.2c-2-0.3-3.7-1.4-4.7-2.9c-0.5-0.8-1.2-1.5-1.9-2.1c-1.6-1.2-3.5-1.9-5.6-1.9  c-2.2,0-4.5,0.7-6.3,2.1l-7.6-7.6c0.8-0.8,0.8-2,0-2.8c-0.8-0.8-2-0.8-2.8,0L7.5,4.7c0.8-0.8,0.7-2,0-2.8c-0.8-0.8-2-0.8-2.8,0  L3.8,1.1c-0.8-0.8-2-0.8-2.8,0c-0.8,0.8-0.8,2,0,2.8L2,4.7c-0.8,0.8-0.7,2,0,2.8c0.4,0.4,0.9,0.6,1.4,0.6c0.5,0,1-0.2,1.4-0.6  l1.3,1.4c-0.8,0.8-0.7,2,0,2.8C6.5,12,7,12.2,7.5,12.2c0.5,0,1-0.2,1.4-0.6l7.6,7.6c-1.2,1.7-2,3.8-2.1,5.8  c-0.1,2.7,0.8,5.1,2.6,6.9c0.4,0.4,0.8,0.7,1.2,1c1.7,1.2,2.8,3,3.3,5.3c0.4,2.3,1.5,4.4,3.2,6c2.1,2.1,5.1,3.3,8.3,3.3h0  c3.5,0,7.1-1.4,9.8-3.9c3-2.8,4.8-6.6,4.9-10.5C47.6,29.7,46.4,26.7,44.2,24.5z M31.8,31.6c-0.4,0.4-0.9,0.6-1.4,0.6  c-0.5,0-1-0.2-1.4-0.6l-0.4-0.4c-0.8-0.8-0.8-2,0-2.8c0.8-0.8,2-0.8,2.8,0l0.4,0.4C32.6,29.6,32.6,30.8,31.8,31.6z" id="svg_6"/></svg></g></g></svg>