<svg data-v-1084b650="" xmlns="http://www.w3.org/2000/svg" viewBox="0 0 300 300"><!----> <!----> <rect data-v-1084b650="" fill="#d1d1d6" x="0" y="0" width="300px" height="300px" class="logo-background-square"></rect> <!----> <linearGradient data-v-1084b650="" gradientTransform="rotate(25)" id="6b19448a-dff1-308a-2528-595159321c70" x1="0%" y1="0%" x2="100%" y2="0%"><stop data-v-1084b650="" offset="0%" style="stop-color: rgb(18, 30, 39); stop-opacity: 1;"></stop> <stop data-v-1084b650="" offset="100%" style="stop-color: rgb(43, 111, 167); stop-opacity: 1;"></stop></linearGradient> <g data-v-1084b650="" id="0ff8afe5-7c22-f081-021e-d60a90ed04a0" fill="url(#6b19448a-dff1-308a-2528-595159321c70)" stroke="none" transform="matrix(0.6999999999999997,0,0,0.6999999999999997,44.781250166893045,45.00000000000004)"><svg xmlns="http://www.w3.org/2000/svg" xmlns:xlink="http://www.w3.org/1999/xlink" version="1.1" x="0px" y="0px" viewBox="0 0 48 48" enable-background="new 0 0 48 48" xml:space="preserve"><path d="M44.2,24.5c-1.7-1.7-3.9-2.8-6.4-3.2c-2-0.3-3.7-1.4-4.7-2.9c-0.5-0.8-1.2-1.5-1.9-2.1c-1.6-1.2-3.5-1.9-5.6-1.9  c-2.2,0-4.5,0.7-6.3,2.1l-7.6-7.6c0.8-0.8,0.8-2,0-2.8c-0.8-0.8-2-0.8-2.8,0L7.5,4.7c0.8-0.8,0.7-2,0-2.8c-0.8-0.8-2-0.8-2.8,0  L3.8,1.1c-0.8-0.8-2-0.8-2.8,0c-0.8,0.8-0.8,2,0,2.8L2,4.7c-0.8,0.8-0.7,2,0,2.8c0.4,0.4,0.9,0.6,1.4,0.6c0.5,0,1-0.2,1.4-0.6  l1.3,1.4c-0.8,0.8-0.7,2,0,2.8C6.5,12,7,12.2,7.5,12.2c0.5,0,1-0.2,1.4-0.6l7.6,7.6c-1.2,1.7-2,3.8-2.1,5.8  c-0.1,2.7,0.8,5.1,2.6,6.9c0.4,0.4,0.8,0.7,1.2,1c1.7,1.2,2.8,3,3.3,5.3c0.4,2.3,1.5,4.4,3.2,6c2.1,2.1,5.1,3.3,8.3,3.3h0  c3.5,0,7.1-1.4,9.8-3.9c3-2.8,4.8-6.6,4.9-10.5C47.6,29.7,46.4,26.7,44.2,24.5z M31.8,31.6c-0.4,0.4-0.9,0.6-1.4,0.6  c-0.5,0-1-0.2-1.4-0.6l-0.4-0.4c-0.8-0.8-0.8-2,0-2.8c0.8-0.8,2-0.8,2.8,0l0.4,0.4C32.6,29.6,32.6,30.8,31.8,31.6z"></path></svg></g></svg>