<svg data-v-5f19e91b="" xmlns="http://www.w3.org/2000/svg" width="275" height="25" viewBox="0 0 275 25"><!----> <!----> <!----> <g data-v-5f19e91b="" id="ebbf13e4-6f96-a45b-ccc7-0764b7aa02f5" fill="white" transform="matrix(4.527294346494901,0,0,4.527294346494901,39.630543613664614,-6.265500827942116)"><path d="M9.44 10.50L9.44 10.50L9.44 4.17C9.44 4.00 9.24 3.93 9.14 4.09L6.30 8.15L3.46 4.07C3.36 3.95 3.15 4.00 3.15 4.17L3.15 10.50C3.15 10.58 3.22 10.65 3.30 10.65C3.42 10.65 3.49 10.58 3.49 10.50L3.49 4.69L6.15 8.54C6.16 8.55 6.17 8.57 6.19 8.58C6.29 8.62 6.38 8.61 6.43 8.54L9.11 4.69L9.11 10.50C9.11 10.58 9.18 10.65 9.28 10.65C9.37 10.65 9.44 10.58 9.44 10.50ZM1.46 10.50L1.46 10.50L1.46 0.34C1.46 0.25 1.37 0.18 1.27 0.18C1.19 0.18 1.12 0.25 1.12 0.34L1.12 10.50C1.12 10.58 1.19 10.65 1.27 10.65C1.37 10.65 1.46 10.58 1.46 10.50ZM11.47 10.50L11.47 10.50L11.47 0.34C11.47 0.25 11.40 0.18 11.30 0.18C11.21 0.18 11.14 0.25 11.14 0.34L11.14 10.50C11.14 10.58 11.21 10.65 11.30 10.65C11.40 10.65 11.47 10.58 11.47 10.50ZM9.34 0.25L9.34 0.25L6.30 4.61L3.25 0.25C3.19 0.17 3.09 0.15 3.02 0.21C2.95 0.25 2.93 0.36 2.98 0.43L6.15 4.98C6.16 5.00 6.17 5.01 6.19 5.03C6.29 5.08 6.38 5.05 6.43 4.98L9.60 0.43C9.65 0.36 9.63 0.25 9.56 0.21C9.49 0.15 9.38 0.17 9.34 0.25ZM15.69 6.85L15.69 6.85C15.69 7.91 16.44 8.67 17.49 8.67C18.54 8.67 19.29 7.91 19.29 6.85L19.29 0.50C19.29 0.42 19.22 0.35 19.12 0.35C19.04 0.35 18.97 0.42 18.97 0.50L18.97 6.85C18.97 7.73 18.37 8.36 17.49 8.36C16.62 8.36 16.00 7.73 16.00 6.85L16.00 0.50C16.00 0.42 15.93 0.35 15.85 0.35C15.76 0.35 15.69 0.42 15.69 0.50ZM20.99 0.50L20.99 0.50L20.99 6.96C20.99 9.06 19.43 10.40 17.49 10.40C15.46 10.40 13.99 9.00 13.99 6.96L13.99 0.50C13.99 0.42 13.92 0.35 13.83 0.35C13.73 0.35 13.66 0.42 13.66 0.50L13.66 6.96C13.66 9.17 15.29 10.72 17.49 10.72C19.63 10.72 21.31 9.24 21.31 6.96L21.31 0.50C21.31 0.42 21.24 0.35 21.15 0.35C21.06 0.35 20.99 0.42 20.99 0.50ZM16.88-0.98C16.83-0.91 16.83-0.81 16.88-0.74C16.95-0.67 17.07-0.67 17.12-0.77L18.54-2.25C18.61-2.31 18.61-2.41 18.51-2.49C18.45-2.55 18.37-2.55 18.30-2.46ZM23.14 9.98L23.14 9.98C23.70 10.26 24.23 10.44 24.74 10.56C27.29 11.16 29.54 10.07 29.54 7.53C29.54 5.00 26.47 4.48 25.84 4.00C25.65 3.85 25.54 3.63 25.54 3.42C25.52 2.94 25.90 2.69 26.32 2.63C26.98 2.56 27.83 2.83 28.32 3.02C28.52 3.11 28.64 2.81 28.45 2.73C27.64 2.39 27.01 2.27 26.33 2.31C25.69 2.34 25.19 2.81 25.21 3.46C25.30 4.73 27.03 4.47 28.41 5.75C29.60 6.85 29.39 8.60 28.43 9.56C27.19 10.81 24.92 10.54 23.31 9.70C23.11 9.60 22.96 9.88 23.14 9.98ZM28.70 0.71L28.70 0.71C28.04 0.49 27.54 0.38 27.15 0.32C24.89 0.01 23.20 1.32 23.20 3.49C23.20 6.09 26.26 6.45 26.92 7C27.24 7.29 27.30 7.80 26.96 8.11C26.26 8.75 24.46 8.23 23.58 7.62C23.41 7.50 23.21 7.76 23.39 7.88C24.29 8.54 25.42 8.76 26.31 8.71C26.96 8.67 27.55 8.20 27.51 7.55C27.43 6.26 25.72 6.50 24.35 5.31C23.14 4.23 23.37 2.45 24.26 1.48C25.37 0.28 27.09 0.49 28.59 1.01C28.78 1.09 28.90 0.78 28.70 0.71ZM33.54 10.50L33.54 10.50L33.54 0.49C33.54 0.41 33.47 0.34 33.39 0.34C33.29 0.34 33.22 0.41 33.22 0.49L33.22 10.50C33.22 10.58 33.29 10.65 33.39 10.65C33.47 10.65 33.54 10.58 33.54 10.50ZM31.54 10.50L31.54 10.50L31.54 0.49C31.54 0.41 31.47 0.34 31.39 0.34C31.29 0.34 31.22 0.41 31.22 0.49L31.22 10.50C31.22 10.58 31.29 10.65 31.39 10.65C31.47 10.65 31.54 10.58 31.54 10.50ZM42.57 0.64L42.57 0.64C41.93 0.38 41.24 0.24 40.54 0.24C38.05 0.24 36.46 1.58 35.76 3.32C35.21 4.65 35.21 6.22 35.76 7.56C36.46 9.28 38.05 10.63 40.54 10.63C41.24 10.63 41.93 10.50 42.57 10.23C42.66 10.19 42.70 10.11 42.66 10.01C42.63 9.94 42.52 9.90 42.45 9.93C41.85 10.19 41.20 10.30 40.54 10.30C38.19 10.30 36.69 9.06 36.04 7.43C35.53 6.17 35.53 4.70 36.04 3.43C36.69 1.83 38.19 0.56 40.54 0.56C41.20 0.56 41.85 0.69 42.45 0.94C42.52 0.97 42.63 0.94 42.66 0.85C42.69 0.77 42.66 0.67 42.57 0.64ZM42.18 7.88L42.18 7.88C41.64 8.19 41.17 8.30 40.54 8.30C39.20 8.30 38.36 7.57 37.98 6.62C37.69 5.88 37.69 5.00 37.98 4.26C38.36 3.32 39.20 2.58 40.54 2.58C41.17 2.58 41.64 2.69 42.18 2.98C42.27 3.02 42.35 3.00 42.39 2.93C42.43 2.84 42.41 2.74 42.34 2.70C41.73 2.37 41.23 2.25 40.54 2.25C39.06 2.25 38.09 3.08 37.69 4.14C37.37 4.96 37.37 5.91 37.69 6.73C38.09 7.80 39.06 8.61 40.54 8.61C41.23 8.61 41.73 8.50 42.34 8.16C42.41 8.12 42.43 8.02 42.39 7.95C42.35 7.87 42.27 7.84 42.18 7.88ZM46.93 7.57L46.93 7.57L48.40 7.57C48.50 7.57 48.57 7.50 48.57 7.42C48.57 7.39 48.57 7.38 48.55 7.35L47.82 5.56C47.78 5.46 47.70 5.42 47.60 5.46C47.53 5.49 47.49 5.59 47.52 5.67L48.17 7.27L46.93 7.27C46.84 7.27 46.76 7.34 46.76 7.42C46.76 7.50 46.84 7.57 46.93 7.57ZM45.88 10.40L45.88 10.40L46.21 9.59L49.11 9.59L49.45 10.40C49.49 10.50 49.57 10.53 49.66 10.50C49.74 10.47 49.78 10.36 49.76 10.29L49.38 9.38C49.36 9.32 49.31 9.28 49.22 9.28L46.12 9.28C46.05 9.28 45.98 9.31 45.96 9.38L45.58 10.29C45.54 10.36 45.58 10.47 45.68 10.50C45.77 10.53 45.85 10.50 45.88 10.40ZM43.71 10.40L43.71 10.40L47.67 0.70L51.63 10.40C51.66 10.50 51.76 10.53 51.84 10.50C51.93 10.47 51.95 10.36 51.93 10.29L47.82 0.22C47.77 0.08 47.57 0.07 47.52 0.22L43.41 10.29C43.37 10.36 43.41 10.47 43.50 10.50C43.58 10.53 43.68 10.50 43.71 10.40Z"></path></g> <!----> <g data-v-5f19e91b="" id="9f1069e4-04c2-7aaa-f71b-2b6fa2e7835a" transform="matrix(0.5222222222222223,0,0,0.5222222222222223,-0.15944425662358697,-0.03333333333333499)" stroke="none" fill="white"><path d="M44.2,24.5c-1.7-1.7-3.9-2.8-6.4-3.2c-2-0.3-3.7-1.4-4.7-2.9c-0.5-0.8-1.2-1.5-1.9-2.1c-1.6-1.2-3.5-1.9-5.6-1.9  c-2.2,0-4.5,0.7-6.3,2.1l-7.6-7.6c0.8-0.8,0.8-2,0-2.8c-0.8-0.8-2-0.8-2.8,0L7.5,4.7c0.8-0.8,0.7-2,0-2.8c-0.8-0.8-2-0.8-2.8,0  L3.8,1.1c-0.8-0.8-2-0.8-2.8,0c-0.8,0.8-0.8,2,0,2.8L2,4.7c-0.8,0.8-0.7,2,0,2.8c0.4,0.4,0.9,0.6,1.4,0.6c0.5,0,1-0.2,1.4-0.6  l1.3,1.4c-0.8,0.8-0.7,2,0,2.8C6.5,12,7,12.2,7.5,12.2c0.5,0,1-0.2,1.4-0.6l7.6,7.6c-1.2,1.7-2,3.8-2.1,5.8  c-0.1,2.7,0.8,5.1,2.6,6.9c0.4,0.4,0.8,0.7,1.2,1c1.7,1.2,2.8,3,3.3,5.3c0.4,2.3,1.5,4.4,3.2,6c2.1,2.1,5.1,3.3,8.3,3.3h0  c3.5,0,7.1-1.4,9.8-3.9c3-2.8,4.8-6.6,4.9-10.5C47.6,29.7,46.4,26.7,44.2,24.5z M31.8,31.6c-0.4,0.4-0.9,0.6-1.4,0.6  c-0.5,0-1-0.2-1.4-0.6l-0.4-0.4c-0.8-0.8-0.8-2,0-2.8c0.8-0.8,2-0.8,2.8,0l0.4,0.4C32.6,29.6,32.6,30.8,31.8,31.6z"></path></g></svg>